<svg width="328" height="33" viewBox="0 0 328 33" fill="none" xmlns="http://www.w3.org/2000/svg">
<rect y="0.359375" width="28" height="28" rx="3" fill="white"/>
<path d="M0.180481 4.1394V24.5443H27.7703V4.1394H0.180481ZM24.6414 6.47494L13.971 14.6316L3.30943 6.47494H24.6414ZM2.52493 8.8194L8.23901 13.1964L2.52493 18.9104V8.81951V8.8194ZM2.54276 22.1998L10.111 14.6316L13.9621 17.5822L17.7952 14.6494L25.3456 22.1998H2.54276ZM25.4169 18.955L19.6762 13.2142L25.417 8.81951V18.9551L25.4169 18.955Z" fill="#637581"/>
<rect x="60" y="0.359375" width="28" height="28" rx="3" fill="white"/>
<g clip-path="url(#clip0_660_3125)">
<path d="M87.3653 5.54286C86.9256 5.73783 86.4732 5.90268 86.0111 6.03629C86.5617 5.41415 86.9768 4.68422 87.2299 3.89293C87.2578 3.80567 87.2585 3.71199 87.232 3.62431C87.2054 3.53664 87.1528 3.45912 87.0811 3.40205C87.0094 3.34497 86.9221 3.31104 86.8307 3.30477C86.7393 3.29849 86.6482 3.32016 86.5694 3.36689C85.5924 3.94716 84.5288 4.36744 83.4191 4.61181C82.3008 3.51909 80.782 2.89722 79.2118 2.89722C75.8974 2.89722 73.2009 5.59362 73.2009 8.90791C73.2009 9.16895 73.2174 9.42853 73.2501 9.68451C69.1373 9.3234 65.3137 7.30189 62.688 4.08107C62.6419 4.02451 62.5827 3.97997 62.5156 3.95126C62.4485 3.92255 62.3754 3.91053 62.3027 3.91623C62.2299 3.92193 62.1596 3.94518 62.0978 3.98399C62.036 4.0228 61.9845 4.07601 61.9477 4.13906C61.4152 5.05286 61.1336 6.09798 61.1336 7.16135C61.1336 8.60967 61.6507 9.98384 62.5642 11.0576C62.2861 10.9613 62.0169 10.8411 61.7597 10.6984C61.6917 10.6606 61.6151 10.641 61.5373 10.6416C61.4595 10.6421 61.3832 10.6627 61.3157 10.7013C61.2483 10.74 61.1919 10.7955 61.1522 10.8623C61.1124 10.9291 61.0906 11.0051 61.0888 11.0829C61.0882 11.1095 61.0882 11.1362 61.0882 11.1632C61.0882 13.325 62.2517 15.2714 64.0306 16.3322C63.8773 16.3169 63.7247 16.2948 63.5733 16.2659C63.4964 16.2511 63.4169 16.2567 63.3428 16.2819C63.2686 16.3072 63.2023 16.3513 63.1504 16.41C63.0985 16.4686 63.0627 16.5398 63.0466 16.6165C63.0305 16.6931 63.0346 16.7727 63.0586 16.8473C63.717 18.903 65.4123 20.4151 67.4617 20.8761C65.7619 21.9407 63.8181 22.4984 61.7775 22.4984C61.3521 22.4984 60.927 22.4735 60.5044 22.4238C60.403 22.4118 60.3005 22.4346 60.2136 22.4884C60.1268 22.5422 60.0608 22.6238 60.0263 22.72C59.9919 22.8162 59.9911 22.9212 60.024 23.0179C60.0569 23.1146 60.1217 23.1972 60.2076 23.2524C62.8291 24.9332 65.8602 25.8216 68.9732 25.8216C75.0929 25.8216 78.9212 22.9358 81.0551 20.5149C83.716 17.4962 85.2421 13.5006 85.2421 9.55273C85.2421 9.3878 85.2396 9.22124 85.2345 9.05523C86.2843 8.26427 87.1882 7.30704 87.9237 6.20682C87.9781 6.12548 88.0046 6.02868 87.9992 5.93097C87.9939 5.83327 87.9569 5.73995 87.8939 5.66506C87.8309 5.59017 87.7453 5.53776 87.65 5.51572C87.5547 5.49369 87.4548 5.50321 87.3653 5.54286Z" fill="#637581"/>
</g>
<rect x="120" y="0.359375" width="28" height="28" rx="3" fill="white"/>
<path d="M141.548 6.68979C139.478 4.55935 136.617 3.40283 133.696 3.40283C127.487 3.40283 122.496 8.45501 122.557 14.6028C122.557 16.5507 123.104 18.4376 124.017 20.142L122.435 25.9246L128.339 24.4028C129.983 25.3159 131.809 25.742 133.635 25.742C139.783 25.742 144.774 20.6898 144.774 14.542C144.774 11.5594 143.617 8.75935 141.548 6.68979ZM133.696 23.855C132.052 23.855 130.409 23.4289 129.009 22.5767L128.644 22.3941L125.113 23.3072L126.026 19.8376L125.783 19.4724C123.104 15.1507 124.383 9.42892 128.765 6.75066C133.148 4.0724 138.809 5.35066 141.487 9.73327C144.165 14.1159 142.887 19.7767 138.504 22.455C137.104 23.368 135.4 23.855 133.696 23.855ZM139.052 17.0985L138.383 16.7941C138.383 16.7941 137.409 16.368 136.8 16.0637C136.739 16.0637 136.678 16.0028 136.617 16.0028C136.435 16.0028 136.313 16.0637 136.191 16.1246C136.191 16.1246 136.13 16.1854 135.278 17.1594C135.217 17.2811 135.096 17.342 134.974 17.342H134.913C134.852 17.342 134.73 17.2811 134.67 17.2202L134.365 17.0985C133.696 16.7941 133.087 16.4289 132.6 15.942C132.478 15.8202 132.296 15.6985 132.174 15.5767C131.748 15.1507 131.322 14.6637 131.017 14.1159L130.957 13.9941C130.896 13.9333 130.896 13.8724 130.835 13.7507C130.835 13.6289 130.835 13.5072 130.896 13.4463C130.896 13.4463 131.139 13.142 131.322 12.9594C131.444 12.8376 131.504 12.655 131.626 12.5333C131.748 12.3507 131.809 12.1072 131.748 11.9246C131.687 11.6202 130.957 9.97675 130.774 9.61153C130.652 9.42892 130.53 9.36805 130.348 9.30718H129.678C129.557 9.30718 129.435 9.36805 129.313 9.36805L129.252 9.42892C129.13 9.48979 129.009 9.61153 128.887 9.6724C128.765 9.79414 128.704 9.91588 128.583 10.0376C128.157 10.5854 127.913 11.255 127.913 11.9246C127.913 12.4115 128.035 12.8985 128.217 13.3246L128.278 13.5072C128.826 14.6637 129.557 15.6985 130.53 16.6115L130.774 16.855C130.957 17.0376 131.139 17.1594 131.261 17.342C132.539 18.4376 134 19.2289 135.644 19.655C135.826 19.7159 136.07 19.7159 136.252 19.7767H136.861C137.165 19.7767 137.53 19.655 137.774 19.5333C137.957 19.4115 138.078 19.4115 138.2 19.2898L138.322 19.168C138.444 19.0463 138.565 18.9854 138.687 18.8637C138.809 18.742 138.93 18.6202 138.991 18.4985C139.113 18.255 139.174 17.9507 139.235 17.6463V17.2202C139.235 17.2202 139.174 17.1594 139.052 17.0985Z" fill="#637581"/>
<rect x="180" y="0.359375" width="28" height="28" rx="3" fill="white"/>
<g clip-path="url(#clip1_660_3125)">
<path d="M205.774 0.999025H182.229C181.936 0.998656 181.646 1.05596 181.376 1.16765C181.106 1.27934 180.86 1.44323 180.653 1.64995C180.446 1.85667 180.282 2.10216 180.17 2.37239C180.058 2.64262 180 2.93228 180 3.22481V25.4948C180 25.7872 180.058 26.0767 180.17 26.3468C180.282 26.6169 180.447 26.8622 180.654 27.0688C180.86 27.2754 181.106 27.4392 181.376 27.5509C181.647 27.6626 181.936 27.7199 182.229 27.7197H205.774C206.364 27.7192 206.93 27.4846 207.347 27.0675C207.764 26.6504 207.999 26.0848 208 25.4948V3.22481C208 2.63465 207.765 2.0688 207.348 1.65149C206.93 1.23418 206.364 0.999521 205.774 0.999025ZM198.821 8.93236C198.242 8.59381 197.783 8.32635 197.206 8.32635C196.641 8.32635 196.158 8.46756 195.912 8.7051C195.665 8.94077 195.542 9.39715 195.542 10.0714V11.0693H198.562L197.908 13.845H195.542V23.068H191.749V13.845H189.979V11.0693H191.751V10.0097C191.751 8.89402 191.885 8.22628 192.148 7.67544C192.411 7.12648 192.921 6.51486 193.63 6.16883C194.338 5.82374 195.385 5.64979 196.469 5.64979C197.58 5.64979 198.448 6.02013 199.512 6.31846L198.821 8.93236Z" fill="#637581"/>
</g>
<rect x="240" y="0.359375" width="28" height="28" rx="3" fill="white"/>
<g clip-path="url(#clip2_660_3125)">
<path d="M252.037 17.7439C251.851 17.7441 251.666 17.7074 251.493 17.6359C251.321 17.5644 251.164 17.4596 251.032 17.3274C248.431 14.726 248.431 10.4936 251.032 7.89223L256.282 2.64223C257.542 1.38223 259.218 0.688354 261 0.688354C262.782 0.688354 264.457 1.38223 265.718 2.64223C268.319 5.2436 268.319 9.47598 265.718 12.0774L263.318 14.4775C263.186 14.6095 263.029 14.7142 262.857 14.7857C262.684 14.8571 262.499 14.8939 262.312 14.8939C262.126 14.8939 261.941 14.8571 261.768 14.7857C261.596 14.7142 261.439 14.6095 261.307 14.4775C261.175 14.3455 261.07 14.1887 260.999 14.0162C260.927 13.8437 260.891 13.6588 260.891 13.4721C260.891 13.2854 260.927 13.1005 260.999 12.928C261.07 12.7555 261.175 12.5988 261.307 12.4667L263.707 10.0666C264.424 9.34813 264.827 8.37468 264.827 7.35979C264.827 6.3449 264.424 5.37145 263.707 4.65298C262.984 3.93023 262.023 3.5321 261 3.5321C259.977 3.5321 259.016 3.93023 258.293 4.65298L253.043 9.90298C252.326 10.6215 251.923 11.5949 251.923 12.6098C251.923 13.6247 252.326 14.5981 253.043 15.3166C253.242 15.5153 253.378 15.7687 253.433 16.0446C253.488 16.3206 253.46 16.6067 253.352 16.8666C253.245 17.1266 253.062 17.3488 252.828 17.5049C252.594 17.6611 252.319 17.7443 252.037 17.7439Z" fill="#637581"/>
<path d="M247 28.0313C246.123 28.0337 245.255 27.8623 244.445 27.5269C243.635 27.1916 242.9 26.6989 242.282 26.0774C239.681 23.476 239.681 19.2436 242.282 16.6423L244.682 14.2421C244.814 14.1101 244.971 14.0054 245.143 13.9339C245.316 13.8625 245.501 13.8257 245.687 13.8257C245.874 13.8257 246.059 13.8625 246.232 13.9339C246.404 14.0054 246.561 14.1101 246.693 14.2421C246.825 14.3742 246.93 14.5309 247.001 14.7034C247.073 14.8759 247.109 15.0608 247.109 15.2475C247.109 15.4342 247.073 15.6191 247.001 15.7916C246.93 15.9641 246.825 16.1209 246.693 16.2529L244.293 18.653C243.576 19.3715 243.173 20.3449 243.173 21.3598C243.173 22.3747 243.576 23.3482 244.293 24.0666C245.015 24.7894 245.977 25.1875 247 25.1875C248.023 25.1875 248.984 24.7894 249.707 24.0666L254.957 18.8166C255.674 18.0982 256.077 17.1247 256.077 16.1098C256.077 15.0949 255.674 14.1215 254.957 13.403C254.825 13.271 254.72 13.1143 254.649 12.9417C254.578 12.7692 254.541 12.5844 254.541 12.3976C254.541 12.2109 254.578 12.026 254.649 11.8535C254.72 11.681 254.825 11.5243 254.957 11.3923C255.089 11.2602 255.246 11.1555 255.418 11.0841C255.591 11.0126 255.776 10.9758 255.963 10.9758C256.149 10.9758 256.334 11.0126 256.507 11.0841C256.679 11.1555 256.836 11.2602 256.968 11.3923C259.569 13.9936 259.569 18.226 256.968 20.8274L251.718 26.0774C251.1 26.6989 250.365 27.1916 249.555 27.5269C248.745 27.8623 247.877 28.0337 247 28.0313Z" fill="#637581"/>
</g>
<defs>
<clipPath id="clip0_660_3125">
<rect width="28" height="28" fill="white" transform="translate(60 0.359375)"/>
</clipPath>
<clipPath id="clip1_660_3125">
<rect width="28" height="28" fill="white" transform="translate(180 0.359375)"/>
</clipPath>
<clipPath id="clip2_660_3125">
<rect width="28" height="28" fill="white" transform="translate(240 0.359375)"/>
</clipPath>
</defs>
</svg>
