<svg width="115" height="56" viewBox="0 0 115 56" fill="none" xmlns="http://www.w3.org/2000/svg">
<path d="M51.1256 29.0978C51.1256 33.2872 47.8482 36.3744 43.826 36.3744C39.8038 36.3744 36.5264 33.2872 36.5264 29.0978C36.5264 24.8787 39.8038 21.8211 43.826 21.8211C47.8482 21.8211 51.1256 24.8787 51.1256 29.0978ZM47.9302 29.0978C47.9302 26.4797 46.0306 24.6885 43.826 24.6885C41.6213 24.6885 39.7218 26.4797 39.7218 29.0978C39.7218 31.6895 41.6213 33.5071 43.826 33.5071C46.0306 33.5071 47.9302 31.6863 47.9302 29.0978Z" fill="#EA4335"/>
<path d="M66.873 29.0978C66.873 33.2872 63.5956 36.3744 59.5734 36.3744C55.5513 36.3744 52.2738 33.2872 52.2738 29.0978C52.2738 24.882 55.5513 21.8211 59.5734 21.8211C63.5956 21.8211 66.873 24.8787 66.873 29.0978ZM63.6776 29.0978C63.6776 26.4797 61.7781 24.6885 59.5734 24.6885C57.3688 24.6885 55.4692 26.4797 55.4692 29.0978C55.4692 31.6895 57.3688 33.5071 59.5734 33.5071C61.7781 33.5071 63.6776 31.6863 63.6776 29.0978Z" fill="#FBBC05"/>
<path d="M81.9644 22.2607V35.3246C81.9644 40.6984 78.7952 42.8932 75.0487 42.8932C71.5219 42.8932 69.3992 40.5344 68.5987 38.6053L71.3808 37.4472C71.8762 38.6316 73.0901 40.0291 75.0454 40.0291C77.4436 40.0291 78.9298 38.5495 78.9298 35.7642V34.7176H78.8182C78.103 35.6002 76.7251 36.3711 74.9863 36.3711C71.348 36.3711 68.0148 33.2019 68.0148 29.124C68.0148 25.0165 71.348 21.8211 74.9863 21.8211C76.7218 21.8211 78.0997 22.5921 78.8182 23.4483H78.9298V22.264H81.9644V22.2607ZM79.1561 29.124C79.1561 26.5618 77.4469 24.6885 75.2717 24.6885C73.0671 24.6885 71.22 26.5618 71.22 29.124C71.22 31.66 73.0671 33.5071 75.2717 33.5071C77.4469 33.5071 79.1561 31.66 79.1561 29.124Z" fill="#4285F4"/>
<path d="M86.9675 14.6035V35.9282H83.8508V14.6035H86.9675Z" fill="#34A853"/>
<path d="M99.1128 31.4927L101.593 33.1462C100.792 34.3305 98.8634 36.3711 95.5302 36.3711C91.3965 36.3711 88.3093 33.1757 88.3093 29.0945C88.3093 24.7672 91.4227 21.8178 95.1726 21.8178C98.9487 21.8178 100.796 24.823 101.399 26.4469L101.731 27.2737L92.0034 31.3024C92.7482 32.7623 93.9063 33.507 95.5302 33.507C97.1575 33.507 98.286 32.7065 99.1128 31.4927ZM91.4785 28.8747L97.9809 26.1746C97.6233 25.2659 96.5472 24.6327 95.2809 24.6327C93.6569 24.6327 91.3965 26.0664 91.4785 28.8747V28.8747Z" fill="#EA4335"/>
<path d="M24.7289 27.2047V24.1176H35.1321C35.2338 24.6556 35.2863 25.2921 35.2863 25.981C35.2863 28.2972 34.6531 31.1613 32.6125 33.2019C30.6276 35.2688 28.0916 36.3711 24.7321 36.3711C18.5053 36.3711 13.2693 31.2991 13.2693 25.0723C13.2693 18.8454 18.5053 13.7734 24.7321 13.7734C28.1769 13.7734 30.6309 15.1251 32.4747 16.8868L30.2963 19.0653C28.9741 17.8251 27.1829 16.8606 24.7289 16.8606C20.1818 16.8606 16.6255 20.5252 16.6255 25.0723C16.6255 29.6194 20.1818 33.2839 24.7289 33.2839C27.6782 33.2839 29.358 32.0996 30.4341 31.0235C31.3067 30.1508 31.8809 28.9042 32.1072 27.2015L24.7289 27.2047Z" fill="#4285F4"/>
</svg>
