<svg width="115" height="56" viewBox="0 0 115 56" fill="none" xmlns="http://www.w3.org/2000/svg">
<path d="M51.1256 34.0978C51.1256 38.2872 47.8482 41.3744 43.826 41.3744C39.8038 41.3744 36.5264 38.2872 36.5264 34.0978C36.5264 29.8787 39.8038 26.8211 43.826 26.8211C47.8482 26.8211 51.1256 29.8787 51.1256 34.0978ZM47.9302 34.0978C47.9302 31.4797 46.0306 29.6885 43.826 29.6885C41.6213 29.6885 39.7218 31.4797 39.7218 34.0978C39.7218 36.6895 41.6213 38.5071 43.826 38.5071C46.0306 38.5071 47.9302 36.6863 47.9302 34.0978Z" fill="#EA4335"/>
<path d="M66.873 34.0978C66.873 38.2872 63.5956 41.3744 59.5734 41.3744C55.5513 41.3744 52.2738 38.2872 52.2738 34.0978C52.2738 29.882 55.5513 26.8211 59.5734 26.8211C63.5956 26.8211 66.873 29.8787 66.873 34.0978ZM63.6776 34.0978C63.6776 31.4797 61.7781 29.6885 59.5734 29.6885C57.3688 29.6885 55.4692 31.4797 55.4692 34.0978C55.4692 36.6895 57.3688 38.5071 59.5734 38.5071C61.7781 38.5071 63.6776 36.6863 63.6776 34.0978Z" fill="#FBBC05"/>
<path d="M81.9644 27.2607V40.3246C81.9644 45.6984 78.7952 47.8932 75.0487 47.8932C71.5219 47.8932 69.3992 45.5344 68.5987 43.6053L71.3808 42.4472C71.8762 43.6316 73.0901 45.0291 75.0454 45.0291C77.4436 45.0291 78.9298 43.5495 78.9298 40.7642V39.7176H78.8182C78.103 40.6002 76.7251 41.3711 74.9863 41.3711C71.348 41.3711 68.0148 38.2019 68.0148 34.124C68.0148 30.0165 71.348 26.8211 74.9863 26.8211C76.7218 26.8211 78.0997 27.5921 78.8182 28.4483H78.9298V27.264H81.9644V27.2607ZM79.1561 34.124C79.1561 31.5618 77.4469 29.6885 75.2717 29.6885C73.0671 29.6885 71.22 31.5618 71.22 34.124C71.22 36.66 73.0671 38.5071 75.2717 38.5071C77.4469 38.5071 79.1561 36.66 79.1561 34.124Z" fill="#4285F4"/>
<path d="M86.9675 19.6035V40.9282H83.8508V19.6035H86.9675Z" fill="#34A853"/>
<path d="M99.1128 36.4927L101.593 38.1462C100.792 39.3305 98.8634 41.3711 95.5302 41.3711C91.3965 41.3711 88.3093 38.1757 88.3093 34.0945C88.3093 29.7672 91.4227 26.8178 95.1726 26.8178C98.9487 26.8178 100.796 29.823 101.399 31.4469L101.731 32.2737L92.0034 36.3024C92.7482 37.7623 93.9063 38.507 95.5302 38.507C97.1575 38.507 98.286 37.7065 99.1128 36.4927ZM91.4785 33.8747L97.9809 31.1746C97.6233 30.2659 96.5472 29.6327 95.2809 29.6327C93.6569 29.6327 91.3965 31.0664 91.4785 33.8747V33.8747Z" fill="#EA4335"/>
<path d="M24.7289 32.2048V29.1176H35.1321C35.2338 29.6556 35.2863 30.2921 35.2863 30.9811C35.2863 33.2972 34.6531 36.1613 32.6125 38.2019C30.6276 40.2688 28.0916 41.3711 24.7321 41.3711C18.5053 41.3711 13.2693 36.2991 13.2693 30.0723C13.2693 23.8455 18.5053 18.7735 24.7321 18.7735C28.1769 18.7735 30.6309 20.1251 32.4747 21.8869L30.2963 24.0653C28.9741 22.8252 27.1829 21.8606 24.7289 21.8606C20.1818 21.8606 16.6255 25.5252 16.6255 30.0723C16.6255 34.6194 20.1818 38.284 24.7289 38.284C27.6782 38.284 29.358 37.0996 30.4341 36.0235C31.3067 35.1509 31.8809 33.9042 32.1072 32.2015L24.7289 32.2048Z" fill="#4285F4"/>
</svg>
