<svg width="20" height="12" viewBox="0 0 20 12" fill="none" xmlns="http://www.w3.org/2000/svg">
<path d="M19.7405 5.44561C19.6023 5.22323 16.2841 0 9.99992 0C3.70306 0 0.396096 5.2247 0.258399 5.44708C0.0486325 5.78592 0.0486325 6.21421 0.258399 6.55306C0.396096 6.77551 3.70313 12 9.99992 12C16.2841 12 19.6023 6.77691 19.7405 6.5546C19.9515 6.21505 19.9515 5.78508 19.7405 5.44561ZM7.11606 6.00003C7.11606 4.40987 8.40982 3.11611 9.99999 3.11611C11.5902 3.11611 12.884 4.40987 12.884 6.00003C12.884 7.5902 11.5902 8.88396 9.99999 8.88396C8.40975 8.88396 7.11606 7.59027 7.11606 6.00003ZM4.13191 7.71109C3.36078 7.0785 2.79458 6.43764 2.4481 6.00011C2.79493 5.56201 3.36092 4.9215 4.13191 4.28891C4.72059 3.80592 5.3321 3.40264 5.96413 3.07885C5.36775 3.9004 5.01482 4.90953 5.01482 6.00003C5.01482 7.0904 5.36775 8.09952 5.96399 8.92101C5.33203 8.59729 4.72059 8.19408 4.13191 7.71109ZM15.8641 7.71053C15.2773 8.19156 14.6682 8.59351 14.039 8.91681C14.6334 8.09602 14.9851 7.08858 14.9851 6.00003C14.9851 4.91142 14.6334 3.90398 14.0389 3.08319C14.668 3.40642 15.2772 3.80837 15.8641 4.28954C16.6356 4.92185 17.2027 5.56229 17.5503 6.00003C17.2024 6.4382 16.6353 7.07843 15.8641 7.71053Z" fill="#1158D6"/>
<path d="M11.5697 6.00009C11.5697 5.87227 11.5541 5.74809 11.5253 5.62916C11.3952 5.70845 11.2431 5.75496 11.0797 5.75496C10.6059 5.75496 10.2217 5.37086 10.2217 4.89698C10.2217 4.74016 10.2644 4.59364 10.338 4.46708C10.229 4.44319 10.116 4.43024 9.99996 4.43024C9.13302 4.43024 8.43018 5.13308 8.43018 6.00009C8.43018 6.86711 9.13302 7.56981 9.99996 7.56981C10.867 7.56988 11.5697 6.86711 11.5697 6.00009Z" fill="#1158D6"/>
</svg>
