<svg width="20" height="12" viewBox="0 0 20 12" fill="none" xmlns="http://www.w3.org/2000/svg">
<path d="M19.7406 5.44561C19.6025 5.22323 16.2842 0 10 0C3.70318 0 0.396218 5.2247 0.258521 5.44708C0.0487546 5.78592 0.0487546 6.21421 0.258521 6.55306C0.396218 6.77551 3.70325 12 10 12C16.2842 12 19.6025 6.77691 19.7406 6.5546C19.9516 6.21505 19.9516 5.78508 19.7406 5.44561ZM7.11618 6.00003C7.11618 4.40987 8.40995 3.11611 10.0001 3.11611C11.5903 3.11611 12.8841 4.40987 12.8841 6.00003C12.8841 7.5902 11.5903 8.88396 10.0001 8.88396C8.40988 8.88396 7.11618 7.59027 7.11618 6.00003ZM4.13203 7.71109C3.3609 7.0785 2.79471 6.43764 2.44822 6.00011C2.79506 5.56201 3.36104 4.9215 4.13203 4.28891C4.72071 3.80592 5.33222 3.40264 5.96425 3.07885C5.36787 3.9004 5.01494 4.90953 5.01494 6.00003C5.01494 7.0904 5.36787 8.09952 5.96411 8.92101C5.33215 8.59729 4.72071 8.19408 4.13203 7.71109ZM15.8643 7.71053C15.2774 8.19156 14.6683 8.59351 14.0391 8.91681C14.6335 8.09602 14.9852 7.08858 14.9852 6.00003C14.9852 4.91142 14.6335 3.90398 14.039 3.08319C14.6681 3.40642 15.2773 3.80837 15.8643 4.28954C16.6357 4.92185 17.2028 5.56229 17.5505 6.00003C17.2025 6.4382 16.6355 7.07843 15.8643 7.71053Z" fill="#1158D6"/>
<path d="M11.5699 6.00009C11.5699 5.87227 11.5542 5.74809 11.5254 5.62916C11.3953 5.70845 11.2432 5.75496 11.0798 5.75496C10.606 5.75496 10.2218 5.37086 10.2218 4.89698C10.2218 4.74016 10.2646 4.59364 10.3381 4.46708C10.2291 4.44319 10.1161 4.43024 10.0001 4.43024C9.13314 4.43024 8.4303 5.13308 8.4303 6.00009C8.4303 6.86711 9.13314 7.56981 10.0001 7.56981C10.8671 7.56988 11.5699 6.86711 11.5699 6.00009Z" fill="#1158D6"/>
</svg>
