<svg width="15" height="17" viewBox="0 0 15 17" fill="none" xmlns="http://www.w3.org/2000/svg">
<path d="M1.89953 2.557C1.74205 2.39953 1.48944 2.39953 1.33197 2.55372C1.17121 2.7112 1.17121 2.96381 1.32869 3.12128L2.28665 4.08581C2.36211 4.16127 2.46381 4.20392 2.57207 4.20392C2.67706 4.20392 2.77876 4.16127 2.85421 4.08581L5.77076 1.18567C5.92823 1.02819 5.92823 0.775579 5.77404 0.618105C5.61657 0.460632 5.36395 0.460632 5.20648 0.618105L4.32397 1.49405C3.85483 1.00851 3.20197 0.729649 2.5163 0.729649C1.12856 0.729649 0 1.85821 0 3.24595C0 4.63369 1.12856 5.76225 2.5163 5.76225C3.63502 5.76225 4.60283 5.04378 4.92762 3.97427C4.99323 3.76102 4.87185 3.53793 4.6586 3.47232C4.44536 3.40999 4.22227 3.52809 4.15665 3.74134C3.94013 4.45653 3.2643 4.95848 2.5163 4.95848C1.57146 4.95848 0.803773 4.19079 0.803773 3.24595C0.803773 2.30111 1.57146 1.53342 2.5163 1.53342C2.98544 1.53342 3.43162 1.73026 3.75313 2.0649L2.57535 3.23611L1.89953 2.557Z" fill="black"/>
<path d="M2.5163 6.09692C1.12856 6.09692 0 7.22549 0 8.61322C0 10.001 1.12856 11.1295 2.5163 11.1295C3.90404 11.1295 5.0326 10.001 5.0326 8.61322C5.0326 7.22549 3.90404 6.09692 2.5163 6.09692ZM2.5163 10.3258C1.57146 10.3258 0.803773 9.55807 0.803773 8.61322C0.803773 7.66838 1.57146 6.9007 2.5163 6.9007C3.46114 6.9007 4.22883 7.66838 4.22883 8.61322C4.22883 9.55807 3.46114 10.3258 2.5163 10.3258Z" fill="black"/>
<path d="M5.0326 13.9837C5.0326 12.596 3.90404 11.4674 2.5163 11.4674C1.12856 11.4674 0 12.596 0 13.9837C0 15.3714 1.12856 16.5 2.5163 16.5C3.90404 16.5 5.0326 15.3714 5.0326 13.9837ZM2.5163 15.6995C1.57146 15.6995 0.803773 14.9318 0.803773 13.987C0.803773 13.0421 1.57146 12.2745 2.5163 12.2745C3.46114 12.2745 4.22883 13.0421 4.22883 13.987C4.22883 14.9318 3.46114 15.6995 2.5163 15.6995Z" fill="black"/>
<path d="M14.1333 8.20972H6.31539C6.0923 8.20972 5.91187 8.39016 5.91187 8.61324C5.91187 8.83633 6.0923 9.01677 6.31539 9.01677H14.1333C14.3564 9.01677 14.5368 8.83633 14.5368 8.61324C14.5368 8.39016 14.3564 8.20972 14.1333 8.20972Z" fill="black"/>
<path d="M14.1333 2.8457H6.31539C6.0923 2.8457 5.91187 3.02614 5.91187 3.24923C5.91187 3.47232 6.0923 3.65276 6.31539 3.65276H14.1333C14.3564 3.65276 14.5368 3.47232 14.5368 3.24923C14.5368 3.02614 14.3564 2.8457 14.1333 2.8457Z" fill="black"/>
<path d="M14.1333 13.5835H6.31539C6.0923 13.5835 5.91187 13.7639 5.91187 13.987C5.91187 14.2101 6.0923 14.3905 6.31539 14.3905H14.1333C14.3564 14.3905 14.5368 14.2101 14.5368 13.987C14.5368 13.7607 14.3564 13.5835 14.1333 13.5835Z" fill="black"/>
</svg>
