<svg width="32" height="33" viewBox="0 0 32 33" fill="none" xmlns="http://www.w3.org/2000/svg">
<rect y="0.390625" width="32" height="32" rx="16" fill="#121212" fill-opacity="0.6"/>
<g clip-path="url(#clip0_660_870)">
<path d="M17.6 21.3906L17.2 22.7906C16.5 22.9906 15.3 23.3906 14.2 23.3906C13.5 23.3906 13 23.1906 13 22.4906C13 22.2906 13 22.1906 13.1 21.9906L15.1 15.2906H13.7L14.1 13.7906L18.3 13.1906H18.5L16 21.3906H17.6ZM17.3 12.1906C16.4 12.1906 15.9 11.6906 15.9 10.8906C15.9 9.89062 16.7 9.39062 17.6 9.39062C18.4 9.39062 19 9.89062 19 10.6906C19 11.6906 18.2 12.1906 17.3 12.1906Z" fill="white"/>
</g>
<defs>
<clipPath id="clip0_660_870">
<rect width="6" height="14" fill="white" transform="translate(13 9.39062)"/>
</clipPath>
</defs>
</svg>
