<svg width="16" height="16" viewBox="0 0 16 16" fill="none" xmlns="http://www.w3.org/2000/svg">
<path d="M6.6389 12.6357C7.94874 12.6357 9.17178 12.2096 10.166 11.4995L13.9061 15.2396C14.0797 15.4132 14.3086 15.5 14.5453 15.5C15.0582 15.5 15.429 15.1055 15.429 14.6005C15.429 14.3638 15.3501 14.1428 15.1765 13.9692L11.4601 10.2449C12.2412 9.2191 12.7068 7.94871 12.7068 6.56786C12.7068 3.23014 9.97662 0.5 6.6389 0.5C3.2933 0.5 0.571045 3.23014 0.571045 6.56786C0.571045 9.90558 3.2933 12.6357 6.6389 12.6357ZM6.6389 11.3259C4.02712 11.3259 1.88088 9.17175 1.88088 6.56786C1.88088 3.96397 4.02712 1.80984 6.6389 1.80984C9.2428 1.80984 11.3969 3.96397 11.3969 6.56786C11.3969 9.17175 9.2428 11.3259 6.6389 11.3259Z" fill="#8E8E93"/>
</svg>
