<svg width="21" height="20" viewBox="0 0 21 20" fill="none" xmlns="http://www.w3.org/2000/svg">
<rect x="0.390625" width="20" height="20" rx="10" fill="white"/>
<g clip-path="url(#clip0_660_3299)">
<path d="M3.57812 9.9998C3.57851 10.6556 4.11102 11.187 4.76684 11.1877L11.5207 11.187L9.69507 13.013C9.2007 13.5077 9.17527 14.2849 9.6392 14.7496C10.1035 15.2124 10.8807 15.1881 11.3758 14.6934L15.189 10.8795C15.6849 10.3851 15.7099 9.60754 15.2452 9.14323C15.2325 9.13206 15.219 9.12358 15.2067 9.11241C15.1909 9.09584 15.1797 9.07619 15.1631 9.05885L11.4009 5.29736C10.9123 4.80954 10.1409 4.79028 9.67696 5.25459C9.21265 5.7189 9.23269 6.49069 9.71973 6.97928L11.5519 8.81109H4.76684C4.11025 8.8107 3.57812 9.34244 3.57812 9.9998Z" fill="#E33A11"/>
</g>
<defs>
<clipPath id="clip0_660_3299">
<rect width="12" height="12" fill="white" transform="translate(3.57812 4)"/>
</clipPath>
</defs>
</svg>
