<svg width="26" height="27" viewBox="0 0 26 27" fill="none" xmlns="http://www.w3.org/2000/svg">
<g clip-path="url(#clip0_660_3310)">
<path d="M24 0.625H2C0.89543 0.625 0 1.52043 0 2.625V4.625C0 5.72957 0.89543 6.625 2 6.625H24C25.1046 6.625 26 5.72957 26 4.625V2.625C26 1.52043 25.1046 0.625 24 0.625Z" fill="#637581"/>
<path d="M24 20.625H2C0.89543 20.625 0 21.5204 0 22.625V24.625C0 25.7296 0.89543 26.625 2 26.625H24C25.1046 26.625 26 25.7296 26 24.625V22.625C26 21.5204 25.1046 20.625 24 20.625Z" fill="#637581"/>
<path d="M24 10.625H2C0.89543 10.625 0 11.5204 0 12.625V14.625C0 15.7296 0.89543 16.625 2 16.625H24C25.1046 16.625 26 15.7296 26 14.625V12.625C26 11.5204 25.1046 10.625 24 10.625Z" fill="#637581"/>
</g>
<defs>
<clipPath id="clip0_660_3310">
<rect width="26" height="26" fill="white" transform="translate(0 0.625)"/>
</clipPath>
</defs>
</svg>
