<svg width="31" height="41" viewBox="0 0 31 41" fill="none" xmlns="http://www.w3.org/2000/svg">
<g clip-path="url(#clip0_660_1364)">
<path d="M31 27.4219C31 34.7219 26 40.4219 16 40.4219C5 40.4219 0 32.7219 0 21.4219C0 6.82191 7.9 0.421914 18.6 0.421914C22.0214 0.292002 25.4023 1.19822 28.3 3.02191V4.12191C26.4466 3.17565 24.3789 2.72766 22.3 2.82191C14.5 2.82191 11.3 8.12191 10.7 19.0219C13.2677 16.5054 16.7051 15.0731 20.3 15.0219C27.3 15.0219 31 20.3219 31 27.3219V27.4219ZM11 23.4219C11 34.9219 12.7 39.7219 16.5 39.7219C19.7 39.7219 21 36.5219 21 29.0219C21 22.2219 19.3 19.5219 15.7 19.5219C14.2 19.5219 12.3 19.9219 11 20.5219V23.5219V23.4219Z" fill="#121212"/>
</g>
<defs>
<clipPath id="clip0_660_1364">
<rect width="31" height="40" fill="white" transform="translate(0 0.421875)"/>
</clipPath>
</defs>
</svg>
