<svg width="40" height="41" viewBox="0 0 40 41" fill="none" xmlns="http://www.w3.org/2000/svg">
<g clip-path="url(#clip0_660_3273)">
<rect y="0.46875" width="40" height="40" rx="3" fill="#E33A11"/>
<path d="M30 14.396C29.2514 14.7281 28.4572 14.9462 27.644 15.043C28.5004 14.5295 29.1416 13.723 29.449 12.773C28.6428 13.2499 27.7612 13.5857 26.842 13.766C25.5713 12.4109 23.5489 12.078 21.911 12.9544C20.273 13.8308 19.4277 15.6979 19.85 17.507C16.5516 17.3419 13.4782 15.7848 11.394 13.223C10.306 15.0988 10.8633 17.4972 12.667 18.701C12.0161 18.6797 11.3796 18.5038 10.81 18.188C10.7848 20.1608 12.1656 21.8728 14.099 22.266C13.4943 22.4297 12.8603 22.4536 12.245 22.336C12.7834 24.0069 14.3238 25.1511 16.079 25.184C14.3574 26.5327 12.1715 27.144 10 26.884C13.6732 29.2368 18.3519 29.3446 22.1296 27.1635C25.9072 24.9823 28.1531 20.8765 27.952 16.519C28.7564 15.9398 29.4501 15.2207 30 14.396Z" fill="white"/>
</g>
<defs>
<clipPath id="clip0_660_3273">
<rect y="0.46875" width="40" height="40" rx="3" fill="white"/>
</clipPath>
</defs>
</svg>
