<svg width="146" height="50" viewBox="0 0 146 50" fill="none" xmlns="http://www.w3.org/2000/svg">
<g clip-path="url(#clip0_660_704)">
<path d="M32.8149 26.8998L35.3207 25.5913V5.98917H33.4426L28.8348 12.1033H28.3483L28.6159 5.29361H48.5211L48.7887 12.1276H48.2535L43.7771 6.01349H41.8601V25.5476L44.3221 26.8511V27.5272H32.8149V26.8998ZM51.0707 25.9999V4.28188L49.1245 3.51823V3.10965L56.0872 1.84985H56.8024V12.1471L56.9776 11.9671C58.6362 10.5405 60.7452 9.74475 62.9331 9.71991C65.9741 9.71991 67.3121 11.4272 67.3121 14.6667V25.9999L68.9227 26.8949V27.571H59.7996V26.8949L61.4539 25.9999V14.6667C61.4539 12.9107 60.6949 12.1957 59.2157 12.1957C58.3356 12.1742 57.4755 12.4597 56.7829 13.0031V26.0875L58.4032 26.9873V27.6294H49.285V26.9873L51.0707 25.9999ZM74.7906 19.3605C74.9706 22.9599 76.5811 25.747 80.3861 25.747C82.2204 25.747 83.5147 24.8958 84.7262 24.2635V24.9833C83.9154 25.9775 82.8903 26.7756 81.7276 27.318C80.5649 27.8604 79.2946 28.1331 78.0116 28.1158C72.1486 28.1158 69.1076 24.8277 69.1076 19.1173C69.1076 13.5431 72.3724 10.0798 77.7002 10.0798C82.7118 10.0798 85.3052 12.5994 85.3052 19.2097V19.3897H74.7906V19.3605ZM74.6982 18.553L79.8898 18.2369C79.8898 13.7863 79.1307 10.8192 77.6078 10.8192C75.9973 10.7997 74.6982 14.2143 74.6982 18.5336V18.553ZM0.0157471 36.2047C0.0157471 26.7587 6.23401 23.3879 13.1529 23.3879C16.1064 23.3879 18.8798 23.8743 20.4514 24.5115L20.5876 31.1218H19.9259L15.8582 24.7353C15.0337 24.4063 14.1454 24.2682 13.26 24.3316C9.59129 24.3316 7.66937 28.6071 7.75695 35.621C7.84453 44.031 9.26043 47.8493 12.6664 47.8493C13.3564 47.8836 14.0453 47.7605 14.6807 47.4894V38.4957L12.4425 37.1921V36.4722H23.2831V37.2845L21.0498 38.4957V47.358C18.4357 48.289 15.6798 48.7597 12.9048 48.7491C5.02734 48.7929 0.0157471 45.106 0.0157471 36.2047ZM23.1518 31.7979V31.258L30.4502 29.9982L31.253 30.042V44.4347C31.253 46.1858 32.1045 46.6819 33.4912 46.6819C33.9455 46.6819 34.3941 46.5811 34.8047 46.3868C35.2153 46.1925 35.5777 45.9095 35.8656 45.5583V32.6977L33.9194 31.8417V31.258L41.1692 29.9544L41.8844 29.9982V46.5019L43.8063 47.3094V47.8493L36.6636 48.7491L35.9484 48.7054V46.5457H35.7683C34.302 47.9699 32.3529 48.7896 30.3091 48.8416C26.8204 48.8416 25.2537 46.7695 25.2537 43.6224V32.6977L23.1518 31.7979ZM69.5941 29.9544L70.178 29.9982V35.3049H70.3531C71.1171 31.4136 72.8638 29.9544 74.922 29.9544C75.2247 29.944 75.5266 29.9902 75.8124 30.0906V35.5724C75.332 35.4759 74.8426 35.4318 74.3527 35.4411C72.9964 35.4089 71.6505 35.685 70.4164 36.2485V46.7743L72.0707 47.6693V48.3454H62.6655V47.6693L64.3636 46.7257V32.3816L62.393 31.7979V31.3115L69.5941 29.9544Z" fill="white"/>
<path d="M87.811 30.4019V24.7839L85.8647 24.064V23.6117L93.1826 22.2789L93.8978 22.3665V46.4582L95.9122 47.178V47.8055L88.6624 48.7783L88.0786 48.7345V46.7695H87.9034C87.2925 47.4243 86.5504 47.943 85.7254 48.2917C84.9004 48.6404 84.0111 48.8111 83.1156 48.7929C79.1745 48.7929 76.2648 45.7821 76.2648 39.5512C76.2648 33.0334 79.6221 29.7939 84.6775 29.7939C85.7554 29.7456 86.8294 29.954 87.811 30.4019ZM87.811 45.8258V31.4379C87.5388 31.1968 87.2184 31.0161 86.8712 30.9079C86.5239 30.7998 86.1576 30.7666 85.7966 30.8105C83.8503 30.898 82.6193 33.8651 82.6193 39.1718C82.6193 43.9386 83.4708 46.5944 86.1128 46.5019C86.7427 46.4923 87.347 46.2517 87.811 45.8258ZM103.921 29.9544L104.549 29.9982V46.7257L106.203 47.6255V48.3016H96.8075V47.6255L98.5056 46.6819V32.6491L96.4912 31.8417V31.3017L103.921 29.9544ZM104.592 25.4114C104.585 25.8266 104.496 26.2362 104.33 26.6169C104.164 26.9976 103.924 27.3419 103.625 27.6301C103.326 27.9182 102.973 28.1447 102.586 28.2965C102.2 28.4482 101.787 28.5224 101.371 28.5146C100.957 28.5257 100.545 28.4536 100.16 28.3024C99.7738 28.1513 99.4224 27.9243 99.1261 27.6349C98.8298 27.3455 98.5946 26.9996 98.4346 26.6176C98.2745 26.2357 98.1927 25.8255 98.1942 25.4114C98.1935 24.9961 98.2755 24.5849 98.4355 24.2016C98.5955 23.8184 98.8302 23.4709 99.1259 23.1793C99.4217 22.8877 99.7726 22.6579 100.158 22.5033C100.544 22.3487 100.956 22.2725 101.371 22.2789C102.215 22.2724 103.027 22.5996 103.63 23.1891C104.234 23.7786 104.58 24.5826 104.592 25.426V25.4114ZM127.368 46.7257V32.4934L125.422 31.7736V31.078L132.667 29.7307L133.387 29.7744V31.8903H133.562C135.276 30.416 137.457 29.5958 139.717 29.575C142.851 29.575 144.286 31.0585 144.286 34.3856V46.6381L145.984 47.572V48.2481H136.589V47.572L138.287 46.6284V34.8087C138.287 32.9653 137.484 32.2502 136.005 32.2502C135.101 32.2203 134.215 32.5057 133.499 33.0577V46.7743L135.153 47.718V48.3941H125.758V47.718L127.368 46.7257ZM116.941 37.7807V35.4119C116.941 31.8125 116.182 30.6451 113.944 30.6451C113.677 30.6451 113.458 30.6889 113.185 30.6889L109.244 36.0393H108.709V31.078C110.841 30.3471 113.077 29.9677 115.331 29.9544C120.162 29.9544 122.941 31.3017 122.941 35.3486V46.9981L124.683 47.4456V47.8979C123.593 48.4448 122.388 48.7217 121.17 48.7054C118.795 48.7054 117.632 47.9417 117.141 46.5944H116.961C115.934 47.9855 114.499 48.7491 112.266 48.7491C109.4 48.7491 107.429 46.9543 107.429 43.851C107.429 40.8353 109.263 39.2156 113.068 38.5006L116.961 37.7807H116.941ZM116.941 45.8258V38.6319L115.735 38.7243C113.857 38.9043 113.137 40.1154 113.137 42.7712C113.137 45.6896 114.08 46.4582 115.423 46.4582C115.709 46.4829 115.996 46.4384 116.26 46.3283C116.524 46.2181 116.758 46.0458 116.941 45.8258ZM53.8927 37.7807V35.4119C53.8927 31.8125 53.1337 30.6451 50.8955 30.6451C50.6279 30.6451 50.4089 30.6889 50.1316 30.6889L46.1953 36.0393H45.6601V31.078C47.7917 30.3463 50.0284 29.9668 52.2822 29.9544C57.1138 29.9544 59.8872 31.3017 59.8872 35.3486V46.9981L61.6339 47.4456V47.8979C60.5372 48.4484 59.3236 48.7255 58.0966 48.7054C55.7271 48.7054 54.5642 47.9417 54.0727 46.5944H53.8927C52.8612 47.9855 51.4307 48.7491 49.1925 48.7491C46.3315 48.7491 44.361 46.9543 44.361 43.851C44.361 40.8353 46.1953 39.2156 50.0002 38.5006L53.8927 37.7807ZM53.8927 45.8258V38.6319L52.686 38.7243C50.803 38.9043 50.0878 40.1154 50.0878 42.7712C50.0878 45.6896 51.0269 46.4582 52.3698 46.4582C52.6566 46.4922 52.9473 46.4519 53.214 46.3412C53.4807 46.2304 53.7144 46.053 53.8927 45.8258Z" fill="white"/>
</g>
<defs>
<clipPath id="clip0_660_704">
<rect width="146" height="48.6406" fill="white" transform="translate(0 0.390625)"/>
</clipPath>
</defs>
</svg>
