<svg width="12" height="11" viewBox="0 0 12 11" fill="none" xmlns="http://www.w3.org/2000/svg">
<g clip-path="url(#clip0_660_885)">
<path d="M11 1.90405C10.6428 2.04691 10.2143 2.18976 9.85712 2.26119C10.2857 1.97548 10.5714 1.61833 10.7857 1.11833C10.3571 1.33262 9.92855 1.54691 9.49997 1.61834C9.14283 1.18977 8.5714 0.975464 7.99997 0.975464C6.85711 0.975464 5.92855 1.90405 5.92855 3.04691C5.92855 3.18977 5.92855 3.33261 5.99998 3.5469C4.28569 3.47547 2.7857 2.61833 1.7857 1.40404C1.64284 1.68975 1.49999 2.04689 1.49999 2.40404C1.49999 3.11832 1.85712 3.7612 2.42855 4.11834C2.07141 4.11834 1.7857 4.04689 1.49999 3.83261C1.49999 4.83261 2.21426 5.68976 3.14284 5.83262C2.99998 5.90405 2.7857 5.90405 2.57142 5.90405C2.42856 5.90405 2.2857 5.90405 2.21427 5.83262C2.49999 6.61833 3.21426 7.26119 4.14283 7.26119C3.42855 7.83262 2.5714 8.11832 1.5714 8.11832H1.07141C1.99998 8.68975 3.07141 9.04691 4.21426 9.04691C7.99998 9.04691 10.0714 5.90404 10.0714 3.18975V2.90404C10.2857 2.76119 10.6428 2.33262 11 1.90405Z" fill="#707070"/>
</g>
<defs>
<clipPath id="clip0_660_885">
<rect width="12" height="10" fill="white" transform="translate(0 0.046875)"/>
</clipPath>
</defs>
</svg>
