<svg width="18" height="18" viewBox="0 0 18 18" fill="none" xmlns="http://www.w3.org/2000/svg">
<g clip-path="url(#clip0_660_694)">
<path d="M9 0C3.98571 0 0 3.98571 0 9C0 11.5714 1.15714 14.0143 3.08571 15.6857C4.62857 17.2286 6.81429 18 9 18C11.1857 18 13.3714 17.2286 15.0429 15.6857C16.9714 14.0143 18 11.5714 18 9C18 3.98571 14.0143 0 9 0ZM9 2.31429C10.6714 2.31429 11.7 3.34286 11.7 5.01429C11.7 6.68571 10.2857 8.1 9 8.1C7.97143 8.1 6.42857 6.68571 6.42857 5.01429C6.42857 3.21429 7.32857 2.31429 9 2.31429ZM9 17.2286C6.81429 17.2286 4.75714 16.3286 3.21429 14.9143L4.24286 10.8L4.88571 10.1571C6.17143 9.64286 7.58571 9.51429 8.87143 9.51429C10.2857 9.51429 11.5714 9.77143 12.8571 10.1571L13.5 10.8L14.6571 14.9143C13.2429 16.4571 11.1857 17.2286 9 17.2286Z" fill="white"/>
</g>
<defs>
<clipPath id="clip0_660_694">
<rect width="18" height="18" fill="white"/>
</clipPath>
</defs>
</svg>
