<svg width="27" height="41" viewBox="0 0 27 41" fill="none" xmlns="http://www.w3.org/2000/svg">
<g clip-path="url(#clip0_660_1357)">
<path d="M11.9 40.7812C21.5 40.7812 27 35.5812 27 27.7812C27 19.5812 21.7 15.7812 14 15.7812C10.1 15.7812 5.9 16.7812 3.3 19.7812L3.9 8.28125H24.6L25.3 0.78125H3.3L2 21.5812C3.76377 20.6846 5.72188 20.238 7.7 20.2812C13.2 20.2812 16.4 23.0812 16.4 28.7812C16.4 34.5812 13.1 37.8812 6.8 37.8812C4.44315 37.8553 2.12115 37.3089 0 36.2812L0 37.5812C2.6 39.3812 6.8 40.7812 11.9 40.7812Z" fill="#121212"/>
</g>
<defs>
<clipPath id="clip0_660_1357">
<rect width="27" height="40" fill="white" transform="translate(0 0.78125)"/>
</clipPath>
</defs>
</svg>
