<svg width="31" height="41" viewBox="0 0 31 41" fill="none" xmlns="http://www.w3.org/2000/svg">
<g clip-path="url(#clip0_660_1389)">
<path d="M31 19.3438C31 34.0438 23.1 40.3438 12.4 40.3438C8 40.3438 4 39.1438 2.2 37.7438V36.6437C4 37.6437 6.2 37.9437 8.7 37.9437C16.5 37.9437 19.7 32.6437 20.3 21.7437C17.7323 24.2603 14.2949 25.6925 10.7 25.7437C3.7 25.8438 0 20.5438 0 13.5437C0 6.04375 5 0.34375 15 0.34375C26 0.34375 31 8.04375 31 19.3438ZM10.4 12.0437C10.4 19.0438 12.1 21.5438 15.7 21.5438C17.2 21.5438 19.1 21.2438 20.4 20.5438V17.7437C20.4 6.14375 18.7 1.34375 15 1.34375C11.8 1.34375 10.5 4.44375 10.5 11.9438L10.4 12.0437Z" fill="#121212"/>
</g>
<defs>
<clipPath id="clip0_660_1389">
<rect width="31" height="40" fill="white" transform="translate(0 0.34375)"/>
</clipPath>
</defs>
</svg>
