<svg width="54" height="41" viewBox="0 0 54 41" fill="none" xmlns="http://www.w3.org/2000/svg">
<g clip-path="url(#clip0_660_1396)">
<path d="M0 40.5312H21V39.5312L15.6 37.9313V0.53125H11.3L0.1 5.93125V7.23125L5.6 5.83125V37.9313L0 39.6312V40.5312ZM37 40.5312C27.8 40.5312 20 33.7313 20 20.7313C20 7.13125 28.1 0.53125 37.3 0.53125C46.4 0.53125 54 7.03125 54 20.4312C54 33.8312 46.3 40.5312 37 40.5312ZM37.1 39.5312C41.1 39.5312 42.3 33.4313 42.3 20.8312C42.3 7.53125 41 1.63125 37.1 1.63125C33.1 1.63125 31.7 7.63125 31.7 20.3312C31.7 33.3312 33.1 39.4313 37.1 39.4313V39.5312Z" fill="#121212"/>
</g>
<defs>
<clipPath id="clip0_660_1396">
<rect width="54" height="40" fill="white" transform="translate(0 0.53125)"/>
</clipPath>
</defs>
</svg>
