<svg width="29" height="41" viewBox="0 0 29 41" fill="none" xmlns="http://www.w3.org/2000/svg">
<g clip-path="url(#clip0_660_1382)">
<path d="M29 30.2031C29 36.6031 23.7 40.7031 14.1 40.7031C4.5 40.7031 0 37.0031 0 31.2031C0 26.2031 4.2 22.9031 9.1 21.9031C4.1 18.9031 1.1 15.5031 1.1 10.9031C1.2 4.50312 6.2 0.703125 14.8 0.703125C24 0.703125 27.8 4.20312 27.8 8.90312C27.8 13.9031 23.6 16.5031 18.6 17.5031L20.2 18.4031C25.7 21.4031 29.1 24.2031 29.1 30.2031H29ZM15 15.4031L17.2 16.7031C18.8 14.8031 19.8 12.4031 19.8 9.00313C19.8 4.20312 17.8 1.80313 14.5 1.80313C10.8 1.80313 8.8 4.10312 8.8 7.80312C8.8 11.6031 11.4 13.5031 14.9 15.4031H15ZM8.1 31.1031C8.1 36.3031 10.2 39.6031 14.5 39.6031C18.5 39.6031 20.9 37.0031 20.9 32.7031C20.9 29.0031 18.2 27.2031 14.7 25.2031L10.7 22.8031C8.8911 25.1815 7.9713 28.1178 8.1 31.1031Z" fill="#121212"/>
</g>
<defs>
<clipPath id="clip0_660_1382">
<rect width="29" height="40" fill="white" transform="translate(0 0.703125)"/>
</clipPath>
</defs>
</svg>
