<svg width="40" height="41" viewBox="0 0 40 41" fill="none" xmlns="http://www.w3.org/2000/svg">
<g clip-path="url(#clip0_660_3277)">
<rect y="0.46875" width="40" height="40" rx="3" fill="white"/>
<path d="M37.5758 40.4692H2.42424C1.78129 40.4692 1.16471 40.2138 0.710079 39.7592C0.255446 39.3046 0 38.6879 0 38.045V2.89348C0 2.25053 0.255446 1.63391 0.710079 1.17928C1.16471 0.724647 1.78129 0.469238 2.42424 0.469238H37.5758C38.2187 0.469238 38.8353 0.724647 39.2899 1.17928C39.7446 1.63391 40 2.25053 40 2.89348V38.045C40 38.6879 39.7446 39.3046 39.2899 39.7592C38.8353 40.2138 38.2187 40.4692 37.5758 40.4692ZM10.2097 7.74197C9.43103 7.74293 8.68461 8.05268 8.13403 8.60326C7.58345 9.15384 7.27369 9.9003 7.27273 10.6789V30.2583C7.27305 31.0374 7.58249 31.7845 8.13314 32.3356C8.68379 32.8867 9.43061 33.1968 10.2097 33.1977H29.7927C30.5713 33.1961 31.3176 32.8858 31.8678 32.3347C32.4179 31.7837 32.727 31.037 32.7273 30.2583V10.6789C32.7263 9.9003 32.4166 9.15384 31.866 8.60326C31.3154 8.05268 30.569 7.74293 29.7903 7.74197H10.2097ZM28.5673 30.0147H11.4351C11.176 30.0147 10.9275 29.912 10.744 29.7291C10.5604 29.5462 10.4567 29.2981 10.4557 29.0389V18.348H12.4691C12.3754 18.6864 12.3041 19.0306 12.2557 19.3783C12.2008 19.7394 12.1725 20.104 12.1709 20.4692C12.1732 22.5456 12.999 24.5363 14.4672 26.0045C15.9354 27.4727 17.926 28.2985 20.0024 28.3008C22.0785 28.2982 24.0689 27.4722 25.5368 26.0041C27.0048 24.5359 27.8305 22.5454 27.8328 20.4692C27.8307 20.104 27.8019 19.7394 27.7467 19.3783C27.697 19.0308 27.6257 18.6867 27.5333 18.348H29.5466V29.0365C29.5463 29.296 29.4431 29.5449 29.2594 29.7283C29.0758 29.9117 28.8268 30.0147 28.5673 30.0147ZM20 25.3638C18.7022 25.3625 17.4578 24.8465 16.54 23.9289C15.6222 23.0113 15.1059 21.7671 15.1043 20.4692C15.1059 19.1714 15.6222 17.9272 16.54 17.0096C17.4578 16.092 18.7022 15.576 20 15.5747C21.2978 15.576 22.5422 16.092 23.46 17.0096C24.3778 17.9272 24.8941 19.1714 24.8957 20.4692C24.8941 21.7671 24.3778 23.0113 23.46 23.9289C22.5422 24.8465 21.2978 25.3625 20 25.3638ZM28.5649 15.1893H26.2618C26.0022 15.1886 25.7533 15.085 25.57 14.9012C25.3866 14.7173 25.2836 14.4683 25.2836 14.2086V11.9056C25.284 11.6463 25.3872 11.3976 25.5706 11.2143C25.7539 11.0309 26.0025 10.9277 26.2618 10.9274H28.5649C28.8246 10.9274 29.0735 11.0304 29.2574 11.2138C29.4412 11.3972 29.5448 11.6459 29.5455 11.9056V14.2086C29.5451 14.4686 29.4418 14.7179 29.258 14.9017C29.0741 15.0855 28.8249 15.1889 28.5649 15.1893Z" fill="#E33A11"/>
</g>
<defs>
<clipPath id="clip0_660_3277">
<rect y="0.46875" width="40" height="40" rx="3" fill="white"/>
</clipPath>
</defs>
</svg>
