<svg width="28" height="41" viewBox="0 0 28 41" fill="none" xmlns="http://www.w3.org/2000/svg">
<g clip-path="url(#clip0_660_1343)">
<path d="M8.99998 1.9C13.9 1.9 16.7 4.3 16.7 10.2C16.7 15.9 14.1 19.2 8.89997 19.2H6.09998V20.3H8.99998C14.3 20.3 17.3 23.3 17.3 28.6C17.3 34.1 14.4 37.9 7.49998 37.9C4.59998 37.9 2.39998 37.6 0.0999756 36.4V37.4C2.69998 39.2 6.99998 40.5 12.5 40.5C22.2 40.5 28 36.3 28 29.4C28 22.9 22.9 19.8 13 19.7V19.5C22.5 18.8 26.6 15.1 26.6 10.2C26.6 3.8 22.2 0.5 12.8 0.5C8.79998 0.5 4.29998 1.3 1.39998 2.2V10.7H2.49998L4.89998 2.3C6.25023 2.03262 7.6235 1.89864 8.99998 1.9Z" fill="#121212"/>
</g>
<defs>
<clipPath id="clip0_660_1343">
<rect width="28" height="40" fill="white" transform="translate(0 0.5)"/>
</clipPath>
</defs>
</svg>
