<svg width="148" height="72" viewBox="0 0 148 72" fill="none" xmlns="http://www.w3.org/2000/svg">
<g clip-path="url(#clip0_660_1011)">
<path d="M20.4315 17.0625H17.7919V24.1015H15.2402V17.0625H13.4805V14.5108H15.2402V12.3991C15.2402 10.7273 16.2081 9.14355 18.7598 9.14355C19.8156 9.14355 20.5195 9.23154 20.5195 9.23154V11.8712H18.9357C18.0559 11.8712 17.8799 12.3111 17.8799 13.015V14.5988H20.5195L20.4315 17.0625Z" fill="#C70000"/>
</g>
<rect x="0.5" y="0.5625" width="33" height="33" rx="16.5" stroke="#DCDCDC"/>
<g clip-path="url(#clip1_660_1011)">
<path d="M60.4231 13.9831V14.423C60.4231 18.5585 57.3436 23.3098 51.7123 23.3098C49.9526 23.3098 48.3688 22.7819 47.049 21.902C47.3129 21.902 47.5769 21.99 47.7529 21.99C49.1607 21.99 50.4805 21.4621 51.5363 20.6702C50.2165 20.6702 49.0727 19.7903 48.6327 18.5585C48.8087 18.5585 48.9847 18.6465 49.2487 18.6465L50.0405 18.5585C48.6327 18.2945 47.5769 16.9747 47.5769 15.4789C48.0168 15.7429 48.4568 15.8309 48.9847 15.8309C48.1928 15.3029 47.5769 14.3351 47.5769 13.2792C47.5769 12.7513 47.7529 12.1353 48.0168 11.6954C49.5126 13.5432 51.8003 14.863 54.352 14.951C54.264 14.687 54.264 14.511 54.264 14.2471C54.264 12.4873 55.6718 11.1675 57.3436 11.1675C58.2234 11.1675 59.0153 11.5194 59.5433 12.1353C60.2472 12.0474 60.8631 11.7834 61.479 11.4314C61.215 12.1353 60.7751 12.7513 60.1592 13.1032C60.7751 13.0152 61.391 12.8393 61.9189 12.6633C61.567 13.0152 61.0391 13.5432 60.4231 13.9831Z" fill="#C70000"/>
</g>
<rect x="37.5" y="0.5625" width="33" height="33" rx="16.5" stroke="#DCDCDC"/>
<g clip-path="url(#clip2_660_1011)">
<path d="M97.4786 21.3519H84.5214V13.4875L90.2802 18.4914H91.7206L97.4786 13.4875V21.3519ZM96.0399 12.7731L91 17.0625L85.96 12.7731H96.0399ZM97.4786 11.3433H84.5214L83.0811 12.7731V21.3519L84.5214 22.7817H97.4794L98.9189 21.3519V12.7731L97.4786 11.3433Z" fill="#C70000"/>
</g>
<rect x="74.5" y="0.5625" width="33" height="33" rx="16.5" stroke="#DCDCDC"/>
<g clip-path="url(#clip3_660_1011)">
<path d="M123.848 10.479C124.66 10.479 125.319 11.1388 125.319 11.9508C125.319 12.7636 124.66 13.4234 123.848 13.4234C123.034 13.4234 122.376 12.7636 122.376 11.9508C122.376 11.1388 123.034 10.479 123.848 10.479ZM122.578 14.5403H125.118V22.7093H122.578V14.5403ZM126.71 14.5403H129.146V15.656H129.181C129.52 15.0139 130.348 14.3366 131.583 14.3366C134.152 14.3366 134.627 16.0281 134.627 18.2285V22.7093H132.091V18.7369C132.091 17.789 132.072 16.5705 130.771 16.5705C129.45 16.5705 129.248 17.6026 129.248 18.6681V22.7093H126.71V14.5403Z" fill="#C70000"/>
</g>
<rect x="111.5" y="0.5625" width="33" height="33" rx="16.5" stroke="#DCDCDC"/>
<g clip-path="url(#clip4_660_1011)">
<path d="M23.6543 47.3709C21.8898 45.6065 19.5435 44.6304 17.0376 44.6304C11.885 44.6304 7.68971 48.8256 7.68971 53.9782C7.68971 55.6207 8.12144 57.235 8.93797 58.6522L7.61462 63.4856L12.5701 62.1905C13.931 62.9319 15.4702 63.3261 17.0376 63.3261C22.1901 63.3261 26.3854 59.1308 26.3854 53.9782C26.3854 51.4911 25.4187 49.1447 23.6543 47.3709ZM17.0376 61.7493C15.6391 61.7493 14.2689 61.3739 13.0769 60.67L12.7954 60.5011L9.85773 61.2707L10.6461 58.4081L10.4584 58.1172C9.67941 56.8783 9.26645 55.4424 9.27584 53.9782C9.27584 49.6985 12.7578 46.2165 17.047 46.2165C19.1211 46.2165 21.0733 47.0236 22.5374 48.4972C24.0015 49.9613 24.8087 51.9134 24.8087 53.9876C24.8087 58.2674 21.3173 61.7493 17.0376 61.7493ZM21.2985 55.9304C21.0639 55.8178 19.9189 55.2453 19.703 55.1702C19.4872 55.0951 19.337 55.0575 19.1774 55.2828C19.0179 55.5174 18.5768 56.043 18.436 56.1932C18.3046 56.3527 18.1638 56.3715 17.9292 56.2495C17.6945 56.1369 16.9437 55.8835 16.0521 55.0951C15.3576 54.4757 14.8883 53.7154 14.7569 53.4808C14.6161 53.2462 14.7381 53.1242 14.8602 53.0021C14.9634 52.8989 15.0948 52.73 15.2074 52.5892C15.32 52.4484 15.367 52.3546 15.442 52.195C15.5171 52.0355 15.4796 51.9041 15.4233 51.782C15.367 51.6694 14.8977 50.515 14.7006 50.0457C14.5129 49.5859 14.3158 49.6516 14.175 49.6422C14.0436 49.6328 13.8841 49.6328 13.7245 49.6328C13.565 49.6328 13.3116 49.6891 13.1051 49.9237C12.8986 50.1584 12.2886 50.7215 12.2886 51.8759C12.2886 53.0209 13.1239 54.1378 13.2459 54.2879C13.3585 54.4475 14.8883 56.8032 17.2347 57.8169C17.7884 58.0609 18.2295 58.2017 18.5674 58.3049C19.1305 58.4832 19.6373 58.4551 20.0409 58.3988C20.4914 58.3331 21.4205 57.8356 21.6176 57.2913C21.8147 56.7469 21.8147 56.2777 21.749 56.1838C21.6927 56.1087 21.5332 56.0524 21.2985 55.9304Z" fill="#C70000"/>
</g>
<rect x="0.5" y="37.5625" width="33" height="33" rx="16.5" stroke="#DCDCDC"/>
<g clip-path="url(#clip5_660_1011)">
<path fill-rule="evenodd" clip-rule="evenodd" d="M54 62.8537C52.8737 62.8537 51.7788 62.6973 50.7464 62.3844L46.8358 64.3867V60.1632C44.8961 58.4426 43.676 56.0024 43.676 53.3119C43.676 48.0248 48.3062 43.7388 54 43.7388C59.6938 43.7388 64.3239 48.0248 64.3239 53.3119C64.3239 58.5677 59.6938 62.8537 54 62.8537ZM55.0949 56.5655L52.4357 53.8124L47.305 56.6281L52.9363 50.7153L55.5955 53.4683L60.7262 50.6527L55.0949 56.5655Z" fill="#C70000"/>
</g>
<rect x="37.5" y="37.5625" width="33" height="33" rx="16.5" stroke="#DCDCDC"/>
<defs>
<clipPath id="clip0_660_1011">
<rect width="28.1562" height="28.1562" fill="white" transform="translate(2.92188 2.98438)"/>
</clipPath>
<clipPath id="clip1_660_1011">
<rect width="28.1562" height="28.1562" fill="white" transform="translate(39.9219 2.98438)"/>
</clipPath>
<clipPath id="clip2_660_1011">
<rect width="28.1562" height="28.1562" fill="white" transform="translate(76.9219 2.98438)"/>
</clipPath>
<clipPath id="clip3_660_1011">
<rect width="28.1562" height="28.1562" fill="white" transform="translate(113.922 2.98438)"/>
</clipPath>
<clipPath id="clip4_660_1011">
<rect width="28.1562" height="28.1562" fill="white" transform="translate(2.92188 39.9844)"/>
</clipPath>
<clipPath id="clip5_660_1011">
<rect width="28.1562" height="28.1562" fill="white" transform="translate(39.9219 39.9844)"/>
</clipPath>
</defs>
</svg>
