<svg width="111" height="35" viewBox="0 0 111 35" fill="none" xmlns="http://www.w3.org/2000/svg">
<g clip-path="url(#clip0_660_893)">
<path d="M20.4315 17.4219H17.7919V24.4609H15.2402V17.4219H13.4805V14.8702H15.2402V12.7585C15.2402 11.0867 16.2081 9.50293 18.7598 9.50293C19.8156 9.50293 20.5195 9.59092 20.5195 9.59092V12.2306H18.9357C18.0559 12.2306 17.8799 12.6705 17.8799 13.3744V14.9582H20.5195L20.4315 17.4219Z" fill="#C70000"/>
</g>
<rect x="0.5" y="0.921875" width="33" height="33" rx="16.5" stroke="#DCDCDC"/>
<g clip-path="url(#clip1_660_893)">
<path d="M60.4231 14.3422V14.7822C60.4231 18.9176 57.3436 23.669 51.7123 23.669C49.9526 23.669 48.3688 23.141 47.049 22.2612C47.3129 22.2612 47.5769 22.3492 47.7529 22.3492C49.1607 22.3492 50.4805 21.8212 51.5363 21.0293C50.2165 21.0293 49.0727 20.1494 48.6327 18.9176C48.8087 18.9176 48.9847 19.0056 49.2487 19.0056L50.0405 18.9176C48.6327 18.6536 47.5769 17.3338 47.5769 15.838C48.0168 16.102 48.4568 16.19 48.9847 16.19C48.1928 15.6621 47.5769 14.6942 47.5769 13.6383C47.5769 13.1104 47.7529 12.4945 48.0168 12.0545C49.5126 13.9023 51.8003 15.2221 54.352 15.3101C54.264 15.0461 54.264 14.8702 54.264 14.6062C54.264 12.8464 55.6718 11.5266 57.3436 11.5266C58.2234 11.5266 59.0153 11.8786 59.5433 12.4945C60.2472 12.4065 60.8631 12.1425 61.479 11.7906C61.215 12.4945 60.7751 13.1104 60.1592 13.4623C60.7751 13.3744 61.391 13.1984 61.9189 13.0224C61.567 13.3744 61.0391 13.9023 60.4231 14.3422Z" fill="#C70000"/>
</g>
<rect x="37.5" y="0.921875" width="33" height="33" rx="16.5" stroke="#DCDCDC"/>
<g clip-path="url(#clip2_660_893)">
<path d="M97.4786 21.7113H84.5214V13.8469L90.2802 18.8508H91.7206L97.4786 13.8469V21.7113ZM96.0399 13.1324L91 17.4219L85.96 13.1324H96.0399ZM97.4786 11.7026H84.5214L83.0811 13.1324V21.7113L84.5214 23.1411H97.4794L98.9189 21.7113V13.1324L97.4786 11.7026Z" fill="#C70000"/>
</g>
<rect x="74.5" y="0.921875" width="33" height="33" rx="16.5" stroke="#DCDCDC"/>
<defs>
<clipPath id="clip0_660_893">
<rect width="28.1562" height="28.1562" fill="white" transform="translate(2.92188 3.34375)"/>
</clipPath>
<clipPath id="clip1_660_893">
<rect width="28.1562" height="28.1562" fill="white" transform="translate(39.9219 3.34375)"/>
</clipPath>
<clipPath id="clip2_660_893">
<rect width="28.1562" height="28.1562" fill="white" transform="translate(76.9219 3.34375)"/>
</clipPath>
</defs>
</svg>
