<svg width="18" height="18" viewBox="0 0 18 18" fill="none" xmlns="http://www.w3.org/2000/svg">
<g clip-path="url(#clip0_1364_8006)">
<path d="M2.25 2.99475C2.25 2.58375 2.58375 2.25 2.99475 2.25H15.0052C15.4162 2.25 15.75 2.58375 15.75 2.99475V15.0052C15.7498 15.2027 15.6713 15.392 15.5316 15.5316C15.392 15.6713 15.2027 15.7498 15.0052 15.75H2.99475C2.79729 15.7498 2.60798 15.6713 2.46835 15.5316C2.32873 15.392 2.2502 15.2027 2.25 15.0052V2.99475ZM3.75 3.75V14.25H14.25V3.75H3.75ZM7.9665 6.31125L11.6258 8.75025C11.6669 8.77764 11.7006 8.81476 11.724 8.85834C11.7473 8.90191 11.7595 8.95057 11.7595 9C11.7595 9.04943 11.7473 9.09809 11.724 9.14166C11.7006 9.18524 11.6669 9.22236 11.6258 9.24975L7.96575 11.6888C7.92062 11.7187 7.86824 11.7358 7.81415 11.7384C7.76007 11.7409 7.7063 11.7288 7.65856 11.7033C7.61081 11.6777 7.57086 11.6398 7.54294 11.5934C7.51503 11.547 7.50019 11.4939 7.5 11.4398V6.56025C7.5001 6.50599 7.51492 6.45277 7.54287 6.40626C7.57082 6.35975 7.61086 6.3217 7.65873 6.29615C7.7066 6.27059 7.76051 6.25851 7.8147 6.26117C7.8689 6.26383 7.92136 6.28113 7.9665 6.31125V6.31125Z" fill="black"/>
</g>
<defs>
<clipPath id="clip0_1364_8006">
<rect width="18" height="18" fill="white"/>
</clipPath>
</defs>
</svg>
