<svg width="16" height="17" viewBox="0 0 16 17" fill="none" xmlns="http://www.w3.org/2000/svg">
<path d="M3.08882 13.0016L1.73425 14.3562C1.34998 14.7405 1.34998 15.3693 1.73425 15.7536C2.11852 16.1379 2.74736 16.1379 3.13163 15.7536L4.58326 14.302C4.02016 13.9475 3.51612 13.5081 3.08882 13.0016Z" fill="#00969B"/>
<path d="M2.43305 16.4787C2.05166 16.4787 1.69386 16.3309 1.42548 16.0626C0.869892 15.507 0.869892 14.603 1.42548 14.0474L3.11623 12.3566L3.42283 12.72C3.82309 13.1944 4.29184 13.6023 4.81611 13.9323L5.27931 14.2239L3.44065 16.0626C3.17227 16.3309 2.81443 16.4787 2.43305 16.4787ZM3.07316 13.6352L2.04327 14.6652C1.82831 14.8801 1.82831 15.2298 2.04327 15.4448C2.14662 15.5482 2.28505 15.6051 2.43305 15.6051C2.58104 15.6051 2.71951 15.5482 2.82286 15.4448L3.90303 14.3646C3.60734 14.1442 3.33005 13.9005 3.07316 13.6352Z" fill="#1F2C47"/>
<path d="M14.2655 14.3563L12.9109 13.0017C12.4837 13.5082 11.9796 13.9476 11.4165 14.302L12.8681 15.7537C13.2524 16.1379 13.8813 16.1379 14.2655 15.7537C14.6498 15.3694 14.6498 14.7406 14.2655 14.3563Z" fill="#00969B"/>
<path d="M13.5669 16.4787C13.1855 16.4787 12.8277 16.3309 12.5594 16.0626L10.7207 14.2239L11.1839 13.9324C11.7082 13.6024 12.1769 13.1945 12.5772 12.7201L12.8838 12.3567L14.5745 14.0474C15.1301 14.603 15.1301 15.507 14.5745 16.0626C14.3061 16.3309 13.9483 16.4787 13.5669 16.4787ZM12.097 14.3647L13.1772 15.4448C13.2805 15.5481 13.4189 15.605 13.567 15.605C13.715 15.605 13.8534 15.5481 13.9567 15.4448C14.1717 15.2299 14.1717 14.8801 13.9567 14.6651L12.9269 13.6352C12.6699 13.9005 12.3926 14.1442 12.097 14.3647Z" fill="#1F2C47"/>
<path d="M5.81588 2.81384C5.43917 1.73359 4.41216 0.958191 3.20349 0.958191C1.67545 0.958191 0.436768 2.19688 0.436768 3.72487C0.436768 4.85544 1.11523 5.82697 2.08689 6.25623C2.70757 4.59309 4.09307 3.30281 5.81588 2.81384Z" fill="#00969B"/>
<path d="M2.33423 6.84291L1.91042 6.65569C0.749886 6.14308 0 4.99264 0 3.72486C0 1.95845 1.43709 0.521362 3.20349 0.521362C4.56458 0.521362 5.7802 1.38482 6.22837 2.66998L6.38095 3.10755L5.93518 3.23405C4.35648 3.68209 3.07092 4.86897 2.4962 6.40893L2.33423 6.84291ZM3.20349 1.395C1.91881 1.395 0.873637 2.44017 0.873637 3.72486C0.873637 4.49602 1.25528 5.20755 1.87413 5.63795C2.54468 4.21851 3.74978 3.10593 5.21666 2.552C4.805 1.84584 4.04223 1.395 3.20349 1.395Z" fill="#1F2C47"/>
<path d="M12.7967 0.958191C11.588 0.958191 10.561 1.73359 10.1843 2.81384C11.9071 3.30281 13.2926 4.59309 13.9133 6.25619C14.8849 5.82692 15.5634 4.8554 15.5634 3.72482C15.5634 2.19688 14.3247 0.958191 12.7967 0.958191Z" fill="#00969B"/>
<path d="M13.6659 6.84294L13.5039 6.40887C12.9292 4.86895 11.6436 3.68208 10.0649 3.23399L9.61914 3.10748L9.77172 2.66992C10.2199 1.38476 11.4355 0.521301 12.7966 0.521301C14.563 0.521301 16.0001 1.95839 16.0001 3.7248C16.0001 4.99253 15.2502 6.14298 14.0897 6.65572L13.6659 6.84294ZM10.7834 2.55207C12.2503 3.10596 13.4554 4.21853 14.126 5.63802C14.7448 5.20758 15.1265 4.49604 15.1265 3.72493C15.1265 2.44024 14.0813 1.39507 12.7966 1.39507C11.9579 1.39503 11.1951 1.84587 10.7834 2.55207Z" fill="#1F2C47"/>
<path d="M8.00007 15.7225C4.21775 15.7225 1.14062 12.6454 1.14062 8.86303C1.14062 5.08071 4.21775 2.00354 8.00007 2.00354C11.7824 2.00354 14.8595 5.08066 14.8595 8.86299C14.8595 12.6453 11.7823 15.7225 8.00007 15.7225ZM8.00007 2.87718C4.69947 2.87718 2.01426 5.56243 2.01426 8.86299C2.01426 12.1635 4.69952 14.8488 8.00007 14.8488C11.3006 14.8488 13.9859 12.1635 13.9859 8.86299C13.9859 5.56243 11.3006 2.87718 8.00007 2.87718Z" fill="#1F2C47"/>
<path d="M8.00012 14.2403C5.03509 14.2403 2.6228 11.828 2.6228 8.86293C2.6228 5.89785 5.03504 3.48566 8.00012 3.48566V4.35929C5.51677 4.35929 3.49644 6.37962 3.49644 8.86298C3.49644 11.3463 5.51677 13.3667 8.00012 13.3667C10.4835 13.3667 12.5038 11.3463 12.5038 8.86298H13.3774C13.3774 11.828 10.9652 14.2403 8.00012 14.2403Z" fill="#1F2C47"/>
<path d="M8.08615 9.88854L5.82837 8.75967L6.21906 7.97825L7.91365 8.8255L10.1613 6.57794L10.7791 7.19569L8.08615 9.88854Z" fill="#1F2C47"/>
</svg>
