<svg width="16" height="17" viewBox="0 0 16 17" fill="none" xmlns="http://www.w3.org/2000/svg">
<path d="M3.08906 13.0016L1.73449 14.3562C1.35022 14.7404 1.35022 15.3693 1.73449 15.7535C2.11876 16.1378 2.7476 16.1378 3.13187 15.7535L4.58351 14.3019C4.0204 13.9475 3.51636 13.5081 3.08906 13.0016Z" fill="#00969B"/>
<path d="M2.43317 16.4786C2.05178 16.4786 1.69398 16.3308 1.4256 16.0625C0.870014 15.5069 0.870014 14.6029 1.4256 14.0473L3.11635 12.3566L3.42295 12.72C3.82321 13.1944 4.29196 13.6023 4.81623 13.9323L5.27943 14.2238L3.44078 16.0625C3.1724 16.3308 2.81455 16.4786 2.43317 16.4786ZM3.07328 13.6352L2.0434 14.6651C1.82844 14.88 1.82844 15.2298 2.0434 15.4447C2.14675 15.5481 2.28517 15.605 2.43317 15.605C2.58116 15.605 2.71963 15.5481 2.82298 15.4447L3.90315 14.3646C3.60747 14.1442 3.33017 13.9004 3.07328 13.6352Z" fill="#1F2C47"/>
<path d="M14.2655 14.3562L12.9109 13.0016C12.4837 13.508 11.9796 13.9475 11.4165 14.3019L12.8681 15.7535C13.2524 16.1378 13.8813 16.1378 14.2655 15.7535C14.6498 15.3693 14.6498 14.7404 14.2655 14.3562Z" fill="#00969B"/>
<path d="M13.5668 16.4786C13.1854 16.4786 12.8276 16.3308 12.5592 16.0624L10.7206 14.2238L11.1838 13.9323C11.7081 13.6022 12.1768 13.1943 12.5771 12.72L12.8837 12.3566L14.5744 14.0473C15.13 14.6029 15.13 15.5069 14.5744 16.0625C14.306 16.3308 13.9482 16.4786 13.5668 16.4786ZM12.0969 14.3645L13.177 15.4447C13.2804 15.548 13.4188 15.6049 13.5668 15.6049C13.7149 15.6049 13.8533 15.548 13.9566 15.4447C14.1716 15.2297 14.1716 14.88 13.9566 14.665L12.9267 13.6351C12.6698 13.9004 12.3925 14.1441 12.0969 14.3645Z" fill="#1F2C47"/>
<path d="M5.81588 2.81378C5.43917 1.73353 4.41216 0.95813 3.20349 0.95813C1.67545 0.95813 0.436768 2.19682 0.436768 3.72481C0.436768 4.85538 1.11523 5.82691 2.08689 6.25617C2.70757 4.59303 4.09307 3.30275 5.81588 2.81378Z" fill="#00969B"/>
<path d="M2.33423 6.84291L1.91042 6.65569C0.749886 6.14308 0 4.99264 0 3.72486C0 1.95845 1.43709 0.521362 3.20349 0.521362C4.56458 0.521362 5.7802 1.38482 6.22837 2.66998L6.38095 3.10755L5.93518 3.23405C4.35648 3.68209 3.07092 4.86897 2.4962 6.40893L2.33423 6.84291ZM3.20349 1.395C1.91881 1.395 0.873637 2.44017 0.873637 3.72486C0.873637 4.49602 1.25528 5.20755 1.87413 5.63795C2.54468 4.21851 3.74978 3.10593 5.21666 2.552C4.805 1.84584 4.04223 1.395 3.20349 1.395Z" fill="#1F2C47"/>
<path d="M12.7965 0.95813C11.5878 0.95813 10.5608 1.73353 10.1841 2.81378C11.9068 3.30275 13.2924 4.59303 13.913 6.25612C14.8847 5.82686 15.5631 4.85534 15.5631 3.72476C15.5631 2.19682 14.3245 0.95813 12.7965 0.95813Z" fill="#00969B"/>
<path d="M13.6657 6.84287L13.5038 6.40881C12.9291 4.86889 11.6435 3.68201 10.0648 3.23393L9.61902 3.10742L9.7716 2.66986C10.2198 1.3847 11.4354 0.52124 12.7965 0.52124C14.5629 0.52124 16 1.95833 16 3.72473C16 4.99247 15.2501 6.14292 14.0895 6.65565L13.6657 6.84287ZM10.7833 2.55201C12.2502 3.10589 13.4553 4.21847 14.1258 5.63796C14.7447 5.20751 15.1263 4.49598 15.1263 3.72487C15.1263 2.44018 14.0812 1.39501 12.7965 1.39501C11.9577 1.39496 11.195 1.8458 10.7833 2.55201Z" fill="#1F2C47"/>
<path d="M8.00007 15.7224C4.21775 15.7224 1.14062 12.6452 1.14062 8.86291C1.14062 5.08059 4.21775 2.00342 8.00007 2.00342C11.7824 2.00342 14.8595 5.08054 14.8595 8.86286C14.8595 12.6452 11.7823 15.7224 8.00007 15.7224ZM8.00007 2.87705C4.69947 2.87705 2.01426 5.56231 2.01426 8.86286C2.01426 12.1634 4.69952 14.8487 8.00007 14.8487C11.3006 14.8487 13.9859 12.1634 13.9859 8.86286C13.9859 5.56231 11.3006 2.87705 8.00007 2.87705Z" fill="#1F2C47"/>
<path d="M8 14.2402C5.03497 14.2402 2.62268 11.828 2.62268 8.86287C2.62268 5.89779 5.03492 3.4856 8 3.4856V4.35923C5.51665 4.35923 3.49632 6.37956 3.49632 8.86292C3.49632 11.3463 5.51665 13.3666 8 13.3666C10.4834 13.3666 12.5037 11.3463 12.5037 8.86292H13.3773C13.3773 11.828 10.965 14.2402 8 14.2402Z" fill="#1F2C47"/>
<path d="M8.08627 9.88848L5.82849 8.75961L6.21918 7.97819L7.91377 8.82544L10.1614 6.57788L10.7792 7.19563L8.08627 9.88848Z" fill="#1F2C47"/>
</svg>
