<svg width="16" height="17" viewBox="0 0 16 17" fill="none" xmlns="http://www.w3.org/2000/svg">
<path d="M3.08906 13.0017L1.73449 14.3563C1.35022 14.7405 1.35022 15.3694 1.73449 15.7536C2.11876 16.1379 2.7476 16.1379 3.13187 15.7536L4.58351 14.302C4.0204 13.9476 3.51636 13.5082 3.08906 13.0017Z" fill="#00969B"/>
<path d="M2.43317 16.4787C2.05178 16.4787 1.69398 16.3309 1.4256 16.0626C0.870014 15.507 0.870014 14.603 1.4256 14.0474L3.11635 12.3566L3.42295 12.72C3.82321 13.1944 4.29196 13.6023 4.81623 13.9323L5.27943 14.2239L3.44078 16.0626C3.1724 16.3309 2.81455 16.4787 2.43317 16.4787ZM3.07328 13.6352L2.0434 14.6652C1.82844 14.8801 1.82844 15.2298 2.0434 15.4448C2.14675 15.5482 2.28517 15.6051 2.43317 15.6051C2.58116 15.6051 2.71963 15.5482 2.82298 15.4448L3.90315 14.3646C3.60747 14.1442 3.33017 13.9005 3.07328 13.6352Z" fill="#1F2C47"/>
<path d="M14.2655 14.3563L12.9109 13.0017C12.4837 13.5081 11.9796 13.9476 11.4165 14.302L12.8681 15.7536C13.2524 16.1379 13.8813 16.1379 14.2655 15.7536C14.6498 15.3694 14.6498 14.7405 14.2655 14.3563Z" fill="#00969B"/>
<path d="M13.5668 16.4787C13.1854 16.4787 12.8276 16.3309 12.5592 16.0626L10.7206 14.2239L11.1838 13.9324C11.7081 13.6023 12.1768 13.1944 12.5771 12.7201L12.8837 12.3567L14.5744 14.0474C15.13 14.603 15.13 15.507 14.5744 16.0626C14.306 16.3309 13.9482 16.4787 13.5668 16.4787ZM12.0969 14.3646L13.177 15.4448C13.2804 15.5481 13.4188 15.605 13.5668 15.605C13.7149 15.605 13.8533 15.5481 13.9566 15.4448C14.1716 15.2298 14.1716 14.8801 13.9566 14.6651L12.9267 13.6352C12.6698 13.9005 12.3925 14.1442 12.0969 14.3646Z" fill="#1F2C47"/>
<path d="M5.81588 2.81386C5.43917 1.7336 4.41216 0.958207 3.20349 0.958207C1.67545 0.958207 0.436768 2.19689 0.436768 3.72488C0.436768 4.85546 1.11523 5.82698 2.08689 6.25625C2.70757 4.5931 4.09307 3.30283 5.81588 2.81386Z" fill="#00969B"/>
<path d="M2.33423 6.84294L1.91042 6.65572C0.749886 6.14311 0 4.99266 0 3.72488C0 1.95848 1.43709 0.521389 3.20349 0.521389C4.56458 0.521389 5.7802 1.38485 6.22837 2.67001L6.38095 3.10757L5.93518 3.23407C4.35648 3.68212 3.07092 4.869 2.4962 6.40896L2.33423 6.84294ZM3.20349 1.39503C1.91881 1.39503 0.873637 2.4402 0.873637 3.72488C0.873637 4.49604 1.25528 5.20758 1.87413 5.63797C2.54468 4.21853 3.74978 3.10596 5.21666 2.55203C4.805 1.84587 4.04223 1.39503 3.20349 1.39503Z" fill="#1F2C47"/>
<path d="M12.7965 0.958207C11.5878 0.958207 10.5608 1.7336 10.1841 2.81386C11.9068 3.30283 13.2924 4.5931 13.913 6.2562C14.8847 5.82694 15.5631 4.85541 15.5631 3.72484C15.5631 2.19689 14.3245 0.958207 12.7965 0.958207Z" fill="#00969B"/>
<path d="M13.6657 6.84294L13.5038 6.40887C12.9291 4.86895 11.6435 3.68208 10.0648 3.23399L9.61902 3.10748L9.7716 2.66992C10.2198 1.38476 11.4354 0.521301 12.7965 0.521301C14.5629 0.521301 16 1.95839 16 3.7248C16 4.99253 15.2501 6.14298 14.0895 6.65572L13.6657 6.84294ZM10.7833 2.55207C12.2502 3.10596 13.4553 4.21853 14.1258 5.63802C14.7447 5.20758 15.1263 4.49604 15.1263 3.72493C15.1263 2.44024 14.0812 1.39507 12.7965 1.39507C11.9577 1.39503 11.195 1.84587 10.7833 2.55207Z" fill="#1F2C47"/>
<path d="M8.00007 15.7224C4.21775 15.7224 1.14062 12.6453 1.14062 8.863C1.14062 5.08068 4.21775 2.00351 8.00007 2.00351C11.7824 2.00351 14.8595 5.08064 14.8595 8.86296C14.8595 12.6453 11.7823 15.7224 8.00007 15.7224ZM8.00007 2.87715C4.69947 2.87715 2.01426 5.5624 2.01426 8.86296C2.01426 12.1635 4.69952 14.8488 8.00007 14.8488C11.3006 14.8488 13.9859 12.1635 13.9859 8.86296C13.9859 5.5624 11.3006 2.87715 8.00007 2.87715Z" fill="#1F2C47"/>
<path d="M8 14.2403C5.03497 14.2403 2.62268 11.828 2.62268 8.86296C2.62268 5.89788 5.03492 3.48568 8 3.48568V4.35932C5.51665 4.35932 3.49632 6.37965 3.49632 8.863C3.49632 11.3464 5.51665 13.3667 8 13.3667C10.4834 13.3667 12.5037 11.3464 12.5037 8.863H13.3773C13.3773 11.828 10.965 14.2403 8 14.2403Z" fill="#1F2C47"/>
<path d="M8.08627 9.88852L5.82849 8.75965L6.21918 7.97823L7.91377 8.82548L10.1614 6.57792L10.7792 7.19567L8.08627 9.88852Z" fill="#1F2C47"/>
</svg>
